<?xml version="1.0" encoding="UTF-8" standalone="no"?>
<!DOCTYPE svg PUBLIC "-//W3C//DTD SVG 1.1//EN" "http://www.w3.org/Graphics/SVG/1.1/DTD/svg11.dtd">
<svg width="100%" height="100%" viewBox="0 0 596 842" version="1.1" xmlns="http://www.w3.org/2000/svg" xmlns:xlink="http://www.w3.org/1999/xlink" xml:space="preserve" xmlns:serif="http://www.serif.com/" style="fill-rule:evenodd;clip-rule:evenodd;">
    <g id="Ebene-2" serif:id="Ebene 2">
        <rect id="rect6039" x="65.825" y="558.106" width="400.631" height="84.653" style="fill:rgb(255,180,1);stroke:rgb(154,154,154);stroke-width:0.3px;"/>
        <g transform="matrix(1,0,0,1,27.258,-3.99709)">
            <text x="86.693px" y="627.897px" style="font-family:'Arial-Black', 'Arial Black', sans-serif;font-weight:900;font-size:64.751px;">DigiR<tspan x="272.063px 315.251px " y="627.897px 627.897px ">oa</tspan>d</text>
        </g>
        <rect id="rect4613" x="160.681" y="356.782" width="34.316" height="19.624" style="fill:rgb(255,180,0);"/>
    </g>
    <g id="Ebene-1" serif:id="Ebene 1">
        <g id="rect4600" transform="matrix(0.94816,-0.317794,0.293763,0.955878,0,0)">
            <rect x="217.401" y="394.669" width="18.023" height="213.993"/>
        </g>
        <path id="rect4602" d="M289.882,309.778C292.713,311.535 306.849,311.062 318.315,311.211C330.362,311.368 335.653,308.952 335.653,308.952C335.653,308.952 342.983,315.028 339.809,304.187C337.761,297.193 325.416,298.627 313.885,298.573C302.579,298.521 295.561,298.287 292.075,299.418C289.037,300.403 286.101,303.101 286.243,304.528C286.612,308.235 287.408,308.243 289.882,309.778L289.882,309.778Z" style="fill-rule:nonzero;"/>
        <path id="path4899" d="M226.944,343.132C229.649,344.955 228.746,350.806 221.646,354.521C214.484,358.27 210.32,359.876 199.917,361.477C189.515,363.077 181.807,363.307 174.374,361.794C167.247,360.344 161.332,356.974 160.836,353.75C160.34,350.526 162.958,343.839 169.498,340.083C175.547,336.609 187.593,344.048 198.826,344.22C220.096,344.546 222.207,339.941 226.944,343.132Z" style="fill-rule:nonzero;"/>
        <ellipse id="path4902" cx="141.953" cy="499.834" rx="13.682" ry="15.392"/>
        <ellipse id="ellipse4904" cx="389.943" cy="498.124" rx="13.682" ry="15.392"/>
        <path id="path4583" d="M139.438,499.931Z" style="fill:none;stroke:black;stroke-width:18.61px;"/>
        <circle id="circle4585" cx="388.623" cy="499.93" r="63.945" style="fill:none;stroke:black;stroke-width:18.61px;"/>
        <path id="circle4591" d="M227.618,281.408C227.251,256.625 236.884,232.71 254.327,215.102C271.771,197.493 295.593,187.634 320.379,187.767" style="fill:none;fill-rule:nonzero;stroke:rgb(255,180,1);stroke-width:2.14px;"/>
        <path id="circle4593" d="M190.928,280.078C190.597,245.121 204.234,211.438 228.793,186.559C253.352,161.68 286.856,147.608 321.814,147.487" style="fill:none;fill-rule:nonzero;stroke:rgb(255,180,1);stroke-width:3.05px;"/>
        <path id="path4597" d="M147.161,282.454C146.708,234.699 165.326,188.686 198.852,154.699C232.378,120.712 278.114,101.487 325.837,101.323" style="fill:none;fill-rule:nonzero;stroke:rgb(255,180,0);stroke-width:4.16px;"/>
        <path id="path4603" d="M265.974,279.591C265.227,249.077 289.691,223.34 320.204,222.54" style="fill:none;fill-rule:nonzero;stroke:rgb(255,180,1);stroke-width:2.17px;"/>
        <circle id="path4611" cx="310.283" cy="271.639" r="3.594" style="fill:rgb(255,180,1);stroke:rgb(255,180,1);stroke-width:2.17px;"/>
        <path id="rect6067" d="M205.952,380.604C245.007,379.69 322.127,381.762 339.538,381.837L282.767,492.949L154.549,491.765L205.952,380.604Z" style="fill:none;fill-rule:nonzero;stroke:black;stroke-width:16.14px;"/>
        <g id="rect6070" transform="matrix(0.80509,-0.593153,0.56189,0.827212,0,0)">
            <rect x="-41.353" y="409.07" width="0.641" height="148.732" style="fill:none;stroke:black;stroke-width:14.18px;"/>
        </g>
        <circle id="circle37" cx="141.788" cy="499.93" r="63.945" style="fill:none;stroke:black;stroke-width:18.61px;"/>
    </g>
</svg>
